<svg width="1002" height="1123" viewBox="0 0 1002 1123" fill="none" xmlns="http://www.w3.org/2000/svg">
<path d="M22.766 211.848C10.1877 211.848 0 222.044 0 234.614C0 247.192 10.196 257.38 22.766 257.38H140.879L260.771 824.446C259.548 837.421 271.594 849.999 284.61 849.348H853.81C865.841 849.523 876.901 838.612 876.901 826.582C876.901 814.552 865.84 803.641 853.81 803.816H303.109L283.9 712.742H899.348C909.544 712.631 919.176 704.905 921.408 694.955L1001.09 353.435C1004.06 340.221 992.582 325.784 979.034 325.69H202.076L181.795 229.638C179.54 219.577 169.693 211.763 159.387 211.85L22.766 211.848ZM211.671 371.22H950.574L881.203 667.204H274.293L211.671 371.22ZM409.828 917.652C353.512 917.652 307.376 963.796 307.376 1020.1C307.376 1076.42 353.52 1122.56 409.828 1122.56C466.144 1122.56 512.28 1076.41 512.28 1020.1C512.28 963.788 466.136 917.652 409.828 917.652ZM728.58 917.652C672.264 917.652 626.128 963.796 626.128 1020.1C626.128 1076.42 672.272 1122.56 728.58 1122.56C784.896 1122.56 831.032 1076.41 831.032 1020.1C831.032 963.788 784.888 917.652 728.58 917.652V917.652ZM409.828 963.184C441.537 963.184 466.748 988.396 466.748 1020.1C466.748 1051.81 441.537 1077.02 409.828 1077.02C378.12 1077.02 352.908 1051.81 352.908 1020.1C352.908 988.396 378.12 963.184 409.828 963.184ZM728.58 963.184C760.289 963.184 785.5 988.396 785.5 1020.1C785.5 1051.81 760.289 1077.02 728.58 1077.02C696.872 1077.02 671.66 1051.81 671.66 1020.1C671.66 988.396 696.872 963.184 728.58 963.184Z" fill="black"/>
<path d="M677.623 196.25C677.623 198.073 677.363 200.286 676.842 202.891C676.451 205.495 675.8 208.229 674.889 211.094C673.977 213.828 672.936 216.497 671.764 219.102C670.722 221.576 669.485 223.594 668.053 225.156H668.248C664.082 230.104 654.251 232.578 638.756 232.578C638.756 226.979 638.496 222.161 637.975 218.125C637.584 213.958 636.868 210.638 635.826 208.164C634.915 206.081 633.287 204.323 630.944 202.891C628.6 201.458 625.931 200.286 622.936 199.375C620.071 198.464 617.142 197.812 614.147 197.422C611.152 196.901 608.548 196.641 606.334 196.641C600.735 196.641 595.267 196.771 589.928 197.031C584.589 197.292 579.316 197.812 574.108 198.594C569.03 199.375 563.821 200.482 558.483 201.914C553.274 203.346 547.936 205.169 542.467 207.383C538.561 208.945 534.394 210.898 529.967 213.242C525.67 215.586 521.634 218.255 517.858 221.25C514.082 224.115 510.826 227.305 508.092 230.82C505.488 234.206 503.86 237.852 503.209 241.758L503.405 241.367C503.405 244.492 504.446 248.008 506.53 251.914C508.613 255.69 511.412 259.466 514.928 263.242C518.574 266.888 522.74 270.273 527.428 273.398C532.115 276.393 537.063 278.607 542.272 280.039C542.662 280.169 543.769 280.56 545.592 281.211C547.415 281.862 549.628 282.643 552.233 283.555C554.837 284.336 557.571 285.247 560.436 286.289C563.431 287.331 566.165 288.307 568.639 289.219C571.243 290 573.392 290.716 575.084 291.367C576.907 291.888 577.949 292.214 578.209 292.344C608.418 300.026 630.813 309.271 645.397 320.078C659.98 330.885 667.272 344.167 667.272 359.922C667.272 365 666.165 370.078 663.951 375.156C661.738 380.104 658.938 384.857 655.553 389.414C652.168 393.971 648.457 398.203 644.42 402.109C640.514 405.885 636.803 409.076 633.287 411.68L633.483 411.484C629.707 414.479 625.41 417.539 620.592 420.664C615.905 423.789 610.826 426.849 605.358 429.844C599.889 432.839 594.225 435.638 588.365 438.242C582.506 440.846 576.517 443.125 570.397 445.078C564.668 446.901 558.613 448.594 552.233 450.156C545.983 451.849 539.733 453.281 533.483 454.453C527.233 455.625 521.178 456.536 515.319 457.188C509.589 457.839 504.381 458.164 499.694 458.164C497.22 458.164 494.16 457.839 490.514 457.188C486.998 456.667 483.222 455.885 479.186 454.844C475.28 453.802 471.308 452.565 467.272 451.133C463.365 449.701 459.85 448.073 456.725 446.25C453.6 444.427 451.061 442.474 449.108 440.391C447.155 438.307 446.178 436.094 446.178 433.75C446.178 431.667 446.569 429.128 447.35 426.133C448.131 423.138 449.238 420.273 450.67 417.539C452.233 414.674 453.99 412.266 455.944 410.312C458.027 408.229 460.24 407.188 462.584 407.188C465.839 407.188 468.899 407.578 471.764 408.359C474.628 409.141 477.819 410.052 481.334 411.094C484.98 412.005 489.147 412.917 493.834 413.828C498.652 414.609 504.576 415 511.608 415C518.639 415 525.931 414.284 533.483 412.852C541.165 411.289 548.717 409.271 556.139 406.797C563.561 404.193 570.657 401.263 577.428 398.008C584.199 394.753 590.319 391.367 595.787 387.852C598.131 386.289 600.67 384.531 603.405 382.578C606.269 380.495 608.873 378.281 611.217 375.938C613.691 373.464 615.709 370.924 617.272 368.32C618.964 365.716 619.811 363.047 619.811 360.312C619.811 357.188 617.467 354.193 612.78 351.328V351.523C605.878 347.357 599.043 344.167 592.272 341.953C585.501 339.74 579.576 337.917 574.498 336.484C560.175 332.839 542.727 327.044 522.155 319.102H522.35C513.756 315.716 505.423 311.354 497.35 306.016C489.277 300.677 482.311 295.078 476.451 289.219C463.431 274.766 456.92 258.099 456.92 239.219C456.92 231.797 459.003 224.57 463.17 217.539C467.337 210.508 473.001 203.932 480.162 197.812C487.324 191.562 495.592 185.833 504.967 180.625C514.472 175.417 524.563 170.99 535.24 167.344C545.918 163.568 556.79 160.638 567.858 158.555C579.056 156.471 589.863 155.43 600.28 155.43C603.535 155.43 607.571 155.69 612.389 156.211C617.337 156.602 622.35 157.253 627.428 158.164C632.636 158.945 637.584 159.987 642.272 161.289C646.959 162.461 650.67 163.828 653.405 165.391H653.209C660.761 169.427 666.686 174.245 670.983 179.844C675.41 185.443 677.623 190.911 677.623 196.25Z" fill="black"/>
</svg>
