<svg width="1002" height="1123" viewBox="0 0 1002 1123" fill="none" xmlns="http://www.w3.org/2000/svg">
<path d="M22.766 211.848C10.1877 211.848 0 222.044 0 234.614C0 247.192 10.196 257.38 22.766 257.38H140.879L260.771 824.446C259.548 837.421 271.594 849.999 284.61 849.348H853.81C865.841 849.523 876.901 838.612 876.901 826.582C876.901 814.552 865.84 803.641 853.81 803.816H303.109L283.9 712.742H899.348C909.544 712.631 919.176 704.905 921.408 694.955L1001.09 353.435C1004.06 340.221 992.582 325.784 979.034 325.69H202.076L181.795 229.638C179.54 219.577 169.693 211.763 159.387 211.85L22.766 211.848ZM211.671 371.22H950.574L881.203 667.204H274.293L211.671 371.22ZM409.828 917.652C353.512 917.652 307.376 963.796 307.376 1020.1C307.376 1076.42 353.52 1122.56 409.828 1122.56C466.144 1122.56 512.28 1076.41 512.28 1020.1C512.28 963.788 466.136 917.652 409.828 917.652ZM728.58 917.652C672.264 917.652 626.128 963.796 626.128 1020.1C626.128 1076.42 672.272 1122.56 728.58 1122.56C784.896 1122.56 831.032 1076.41 831.032 1020.1C831.032 963.788 784.888 917.652 728.58 917.652V917.652ZM409.828 963.184C441.537 963.184 466.748 988.396 466.748 1020.1C466.748 1051.81 441.537 1077.02 409.828 1077.02C378.12 1077.02 352.908 1051.81 352.908 1020.1C352.908 988.396 378.12 963.184 409.828 963.184ZM728.58 963.184C760.289 963.184 785.5 988.396 785.5 1020.1C785.5 1051.81 760.289 1077.02 728.58 1077.02C696.872 1077.02 671.66 1051.81 671.66 1020.1C671.66 988.396 696.872 963.184 728.58 963.184Z" fill="black"/>
<path d="M240.016 123.719C241.188 119.161 242.099 114.799 242.75 110.633C243.401 106.466 243.922 102.365 244.312 98.3281C244.833 94.1615 245.289 89.9297 245.68 85.6328C246.07 81.2057 246.526 76.5833 247.047 71.7656C247.177 70.3333 247.568 68.1198 248.219 65.125C248.87 62.1302 249.651 58.9401 250.562 55.5547C251.474 52.0391 252.451 48.6536 253.492 45.3984C254.534 42.1432 255.51 39.6042 256.422 37.7812C257.073 36.2188 257.984 34.5911 259.156 32.8984C260.458 31.2057 262.086 29.6432 264.039 28.2109C265.992 26.7786 268.271 25.6068 270.875 24.6953C273.479 23.7839 276.539 23.3281 280.055 23.3281C282.529 23.3281 285.003 23.7188 287.477 24.5C289.951 25.151 292.75 26.1927 295.875 27.625C298.089 28.6667 299.651 30.1641 300.562 32.1172C301.604 33.9401 302.125 36.1536 302.125 38.7578C302.125 42.5339 301.669 47.612 300.758 53.9922C299.846 60.3724 298.609 67.1432 297.047 74.3047C296.005 78.6016 295.029 82.8333 294.117 87C293.206 91.1667 292.424 95.138 291.773 98.9141C291.383 101.648 290.732 106.076 289.82 112.195C289.039 118.315 288.193 125.281 287.281 133.094C286.37 140.776 285.393 148.849 284.352 157.312C283.31 165.776 282.333 173.719 281.422 181.141C280.641 188.562 279.924 195.073 279.273 200.672C278.622 206.141 278.167 209.786 277.906 211.609C277.125 218.25 276.344 225.086 275.562 232.117C274.911 239.018 274.326 245.529 273.805 251.648C273.284 257.768 272.893 263.237 272.633 268.055C272.372 272.872 272.242 276.453 272.242 278.797C272.242 282.964 271.721 286.935 270.68 290.711C269.638 294.487 268.206 297.872 266.383 300.867C264.69 303.732 262.737 306.206 260.523 308.289C258.44 310.242 256.292 311.609 254.078 312.391C253.297 312.911 252.255 313.237 250.953 313.367C249.781 313.497 248.479 313.562 247.047 313.562C244.833 313.562 242.555 313.237 240.211 312.586C237.867 312.065 235.719 311.414 233.766 310.633C231.812 309.852 230.185 309.07 228.883 308.289C227.581 307.378 226.799 306.661 226.539 306.141C224.846 303.406 223.349 300.346 222.047 296.961C220.745 293.576 220.094 289.539 220.094 284.852C220.094 282.638 220.289 279.773 220.68 276.258C221.07 272.612 221.526 268.576 222.047 264.148C222.698 259.721 223.284 254.969 223.805 249.891C224.456 244.682 224.977 239.344 225.367 233.875C225.888 227.104 226.344 220.398 226.734 213.758C227.255 206.987 227.971 200.672 228.883 194.812C230.445 184.526 231.812 175.346 232.984 167.273C234.286 159.07 235.393 151.974 236.305 145.984C237.086 140.776 237.737 136.349 238.258 132.703C238.909 128.927 239.495 125.932 240.016 123.719ZM657.984 240.125C657.984 245.333 658.18 250.021 658.57 254.188C658.961 258.224 659.352 262 659.742 265.516C660.133 268.901 660.523 272.156 660.914 275.281C661.305 278.406 661.5 281.661 661.5 285.047C661.5 288.953 660.979 293.25 659.938 297.938C658.896 302.625 657.529 306.987 655.836 311.023C655.315 312.195 654.273 313.367 652.711 314.539C651.279 315.711 649.456 316.753 647.242 317.664C645.159 318.576 642.88 319.292 640.406 319.812C637.932 320.333 635.393 320.594 632.789 320.594C628.362 320.594 624.586 319.747 621.461 318.055C618.336 316.362 615.797 314.018 613.844 311.023C611.891 307.898 610.458 304.253 609.547 300.086C608.766 295.789 608.375 291.036 608.375 285.828C608.375 278.276 608.766 269.682 609.547 260.047C610.328 250.281 611.305 240.255 612.477 229.969C613.648 219.552 614.951 209.266 616.383 199.109C617.815 188.953 619.117 179.643 620.289 171.18C621.591 162.716 622.698 155.555 623.609 149.695C624.651 143.836 625.302 140.06 625.562 138.367C625.693 137.716 625.953 136.154 626.344 133.68C626.865 131.206 627.451 128.341 628.102 125.086C628.883 121.701 629.664 118.12 630.445 114.344C631.357 110.568 632.138 106.987 632.789 103.602C633.57 100.216 634.221 97.2865 634.742 94.8125C635.393 92.2083 635.784 90.4505 635.914 89.5391C635.523 90.0599 634.221 91.6875 632.008 94.4219C629.924 97.1562 627.32 100.607 624.195 104.773C621.07 108.81 617.49 113.367 613.453 118.445C609.547 123.523 605.576 128.732 601.539 134.07C597.503 139.279 593.531 144.422 589.625 149.5C585.849 154.448 582.398 158.94 579.273 162.977C576.148 167.013 573.544 170.333 571.461 172.938C569.508 175.542 568.401 177.039 568.141 177.43C566.057 180.164 563.388 183.68 560.133 187.977C556.878 192.143 553.232 196.57 549.195 201.258C545.289 205.945 541.057 210.633 536.5 215.32C532.073 220.008 527.516 224.24 522.828 228.016C518.271 231.661 513.714 234.656 509.156 237C504.599 239.344 500.302 240.516 496.266 240.516C492.099 240.516 488.258 239.214 484.742 236.609C481.227 234.005 477.776 229.708 474.391 223.719C471.005 217.729 467.555 209.917 464.039 200.281C460.654 190.516 456.943 178.536 452.906 164.344C451.214 158.224 449.781 152.69 448.609 147.742C447.438 142.794 446.331 138.237 445.289 134.07C444.378 129.904 443.336 126.062 442.164 122.547C441.122 118.901 439.82 115.32 438.258 111.805C437.997 112.977 437.411 115.385 436.5 119.031C435.719 122.677 434.742 127.039 433.57 132.117C432.529 137.065 431.357 142.404 430.055 148.133C428.753 153.862 427.516 159.396 426.344 164.734C425.172 169.943 424.065 174.63 423.023 178.797C422.112 182.964 421.396 185.958 420.875 187.781C418.141 197.938 415.406 208.289 412.672 218.836C409.938 229.383 407.398 239.669 405.055 249.695C402.711 259.591 400.628 268.966 398.805 277.82C396.982 286.544 395.615 294.227 394.703 300.867C394.443 302.69 393.336 304.578 391.383 306.531C389.43 308.354 387.151 310.047 384.547 311.609C382.073 313.172 379.534 314.474 376.93 315.516C374.456 316.557 372.503 317.078 371.07 317.078C367.685 317.078 364.495 316.232 361.5 314.539C358.505 312.846 355.836 310.763 353.492 308.289C351.279 305.685 349.521 302.951 348.219 300.086C346.917 297.091 346.266 294.292 346.266 291.688C346.396 289.995 346.656 287.456 347.047 284.07C347.568 280.685 348.219 276.844 349 272.547C349.781 268.25 350.758 263.628 351.93 258.68C353.102 253.732 354.469 248.849 356.031 244.031C360.979 228.276 365.146 214.669 368.531 203.211C372.047 191.622 375.172 180.945 377.906 171.18C380.641 161.414 383.245 151.844 385.719 142.469C388.193 133.094 390.992 122.677 394.117 111.219C395.549 106.141 396.786 100.346 397.828 93.8359C399 87.3255 400.042 80.8802 400.953 74.5C401.865 68.1198 402.581 62.1953 403.102 56.7266C403.622 51.2578 403.948 47.026 404.078 44.0312C404.208 40.125 405.25 36.8047 407.203 34.0703C409.286 31.3359 411.891 29.1224 415.016 27.4297C418.271 25.6068 421.917 24.3047 425.953 23.5234C429.99 22.612 434.026 22.1562 438.062 22.1562C441.448 22.1562 444.573 23.4583 447.438 26.0625C450.432 28.5365 453.036 31.4661 455.25 34.8516C457.594 38.1068 459.482 41.4271 460.914 44.8125C462.477 48.0677 463.453 50.5417 463.844 52.2344L463.648 51.8438C464.299 53.7969 465.341 57.0521 466.773 61.6094C468.206 66.1667 469.898 71.5703 471.852 77.8203C473.935 83.9401 476.148 90.6458 478.492 97.9375C480.836 105.229 483.245 112.651 485.719 120.203C488.193 127.625 490.602 134.982 492.945 142.273C495.289 149.435 497.438 156.01 499.391 162C501.474 167.859 503.232 172.938 504.664 177.234C506.096 181.401 507.138 184.201 507.789 185.633C510.654 182.768 514.69 178.341 519.898 172.352C525.237 166.232 530.966 159.396 537.086 151.844C543.206 144.292 549.456 136.479 555.836 128.406C562.216 120.333 567.945 112.911 573.023 106.141C577.451 100.281 582.203 94.0312 587.281 87.3906C592.49 80.75 597.698 74.1094 602.906 67.4688C608.245 60.8281 613.518 54.513 618.727 48.5234C623.935 42.5339 628.818 37.1953 633.375 32.5078C637.932 27.8203 641.969 24.1094 645.484 21.375C649.13 18.6406 652.06 17.2734 654.273 17.2734C657.529 17.2734 661.044 18.0547 664.82 19.6172C668.596 21.0495 672.047 22.9375 675.172 25.2812C678.427 27.4948 681.096 29.8385 683.18 32.3125C685.393 34.7865 686.5 37 686.5 38.9531C686.5 39.7344 686.174 42.013 685.523 45.7891C685.003 49.5651 684.286 54.2526 683.375 59.8516C682.594 65.3203 681.617 71.375 680.445 78.0156C679.273 84.6562 678.102 91.2318 676.93 97.7422C676.148 102.56 674.977 109.852 673.414 119.617C671.982 129.383 670.354 140.646 668.531 153.406C666.839 166.167 665.081 180.034 663.258 195.008C661.435 209.852 659.677 224.891 657.984 240.125ZM948.414 68.25C948.414 70.0729 948.154 72.2865 947.633 74.8906C947.242 77.4948 946.591 80.2292 945.68 83.0938C944.768 85.8281 943.727 88.4974 942.555 91.1016C941.513 93.5755 940.276 95.5938 938.844 97.1562H939.039C934.872 102.104 925.042 104.578 909.547 104.578C909.547 98.9792 909.286 94.1615 908.766 90.125C908.375 85.9583 907.659 82.638 906.617 80.1641C905.706 78.0807 904.078 76.3229 901.734 74.8906C899.391 73.4583 896.721 72.2865 893.727 71.375C890.862 70.4635 887.932 69.8125 884.938 69.4219C881.943 68.901 879.339 68.6406 877.125 68.6406C871.526 68.6406 866.057 68.7708 860.719 69.0312C855.38 69.2917 850.107 69.8125 844.898 70.5938C839.82 71.375 834.612 72.4818 829.273 73.9141C824.065 75.3464 818.727 77.1693 813.258 79.3828C809.352 80.9453 805.185 82.8984 800.758 85.2422C796.461 87.5859 792.424 90.2552 788.648 93.25C784.872 96.1146 781.617 99.3047 778.883 102.82C776.279 106.206 774.651 109.852 774 113.758L774.195 113.367C774.195 116.492 775.237 120.008 777.32 123.914C779.404 127.69 782.203 131.466 785.719 135.242C789.365 138.888 793.531 142.273 798.219 145.398C802.906 148.393 807.854 150.607 813.062 152.039C813.453 152.169 814.56 152.56 816.383 153.211C818.206 153.862 820.419 154.643 823.023 155.555C825.628 156.336 828.362 157.247 831.227 158.289C834.221 159.331 836.956 160.307 839.43 161.219C842.034 162 844.182 162.716 845.875 163.367C847.698 163.888 848.74 164.214 849 164.344C879.208 172.026 901.604 181.271 916.188 192.078C930.771 202.885 938.062 216.167 938.062 231.922C938.062 237 936.956 242.078 934.742 247.156C932.529 252.104 929.729 256.857 926.344 261.414C922.958 265.971 919.247 270.203 915.211 274.109C911.305 277.885 907.594 281.076 904.078 283.68L904.273 283.484C900.497 286.479 896.201 289.539 891.383 292.664C886.695 295.789 881.617 298.849 876.148 301.844C870.68 304.839 865.016 307.638 859.156 310.242C853.297 312.846 847.307 315.125 841.188 317.078C835.458 318.901 829.404 320.594 823.023 322.156C816.773 323.849 810.523 325.281 804.273 326.453C798.023 327.625 791.969 328.536 786.109 329.188C780.38 329.839 775.172 330.164 770.484 330.164C768.01 330.164 764.951 329.839 761.305 329.188C757.789 328.667 754.013 327.885 749.977 326.844C746.07 325.802 742.099 324.565 738.062 323.133C734.156 321.701 730.641 320.073 727.516 318.25C724.391 316.427 721.852 314.474 719.898 312.391C717.945 310.307 716.969 308.094 716.969 305.75C716.969 303.667 717.359 301.128 718.141 298.133C718.922 295.138 720.029 292.273 721.461 289.539C723.023 286.674 724.781 284.266 726.734 282.312C728.818 280.229 731.031 279.188 733.375 279.188C736.63 279.188 739.69 279.578 742.555 280.359C745.419 281.141 748.609 282.052 752.125 283.094C755.771 284.005 759.938 284.917 764.625 285.828C769.443 286.609 775.367 287 782.398 287C789.43 287 796.721 286.284 804.273 284.852C811.956 283.289 819.508 281.271 826.93 278.797C834.352 276.193 841.448 273.263 848.219 270.008C854.99 266.753 861.109 263.367 866.578 259.852C868.922 258.289 871.461 256.531 874.195 254.578C877.06 252.495 879.664 250.281 882.008 247.938C884.482 245.464 886.5 242.924 888.062 240.32C889.755 237.716 890.602 235.047 890.602 232.312C890.602 229.188 888.258 226.193 883.57 223.328V223.523C876.669 219.357 869.833 216.167 863.062 213.953C856.292 211.74 850.367 209.917 845.289 208.484C830.966 204.839 813.518 199.044 792.945 191.102H793.141C784.547 187.716 776.214 183.354 768.141 178.016C760.068 172.677 753.102 167.078 747.242 161.219C734.221 146.766 727.711 130.099 727.711 111.219C727.711 103.797 729.794 96.5703 733.961 89.5391C738.128 82.5078 743.792 75.9323 750.953 69.8125C758.115 63.5625 766.383 57.8333 775.758 52.625C785.263 47.4167 795.354 42.9896 806.031 39.3438C816.708 35.5677 827.581 32.638 838.648 30.5547C849.846 28.4714 860.654 27.4297 871.07 27.4297C874.326 27.4297 878.362 27.6901 883.18 28.2109C888.128 28.6016 893.141 29.2526 898.219 30.1641C903.427 30.9453 908.375 31.987 913.062 33.2891C917.75 34.4609 921.461 35.8281 924.195 37.3906H924C931.552 41.4271 937.477 46.2448 941.773 51.8438C946.201 57.4427 948.414 62.9115 948.414 68.25Z" fill="black"/>
</svg>
